<?xml version="1.0" standalone="no"?>
<!DOCTYPE svg PUBLIC "-//W3C//DTD SVG 20010904//EN"
 "http://www.w3.org/TR/2001/REC-SVG-20010904/DTD/svg10.dtd">
<svg version="1.0" xmlns="http://www.w3.org/2000/svg"
 width="420.000000pt" height="148.000000pt" viewBox="0 0 420.000000 148.000000"
 preserveAspectRatio="xMidYMid meet">
<metadata>
Created by potrace 1.16, written by Peter Selinger 2001-2019
</metadata>
<g transform="translate(0.000000,148.000000) scale(0.100000,-0.100000)"
fill="#000000" stroke="none">
<path d="M2035 1360 c-40 -16 -67 -57 -72 -107 -2 -26 -9 -58 -15 -70 -8 -16
-8 -26 0 -35 5 -7 14 -29 19 -48 8 -30 14 -35 42 -38 23 -2 35 -10 38 -23 6
-22 33 -24 99 -8 36 9 44 16 44 34 0 12 12 48 26 80 43 94 23 169 -58 211 -29
15 -91 18 -123 4z"/>
<path d="M1725 1243 c4 -16 11 -68 16 -118 7 -79 37 -207 53 -234 3 -5 26 -18
50 -30 25 -11 61 -35 80 -52 32 -28 36 -36 36 -80 l0 -49 56 0 56 0 -4 104 -3
105 -67 68 c-37 37 -82 89 -100 115 -63 92 -79 34 -18 -64 34 -56 27 -62 -16
-15 -48 52 -52 58 -75 147 -22 85 -43 130 -61 130 -6 0 -7 -11 -3 -27z"/>
<path d="M2425 1246 c-9 -13 -26 -63 -40 -110 -24 -88 -29 -99 -74 -148 -40
-45 -42 -32 -5 38 19 36 34 72 34 80 0 30 -28 12 -64 -40 -21 -30 -61 -76 -89
-102 -29 -27 -57 -57 -64 -69 -7 -12 -12 -60 -13 -117 l0 -98 50 0 c49 0 50 1
50 30 0 58 25 97 81 127 87 47 97 60 124 158 14 50 25 117 25 150 0 33 4 75 9
93 11 38 -2 43 -24 8z"/>
<path d="M240 1025 c0 -114 4 -185 10 -185 6 0 11 66 12 165 l3 164 65 -116
c36 -63 70 -116 75 -117 6 0 39 52 75 116 36 65 68 118 72 118 4 0 9 -75 11
-167 l3 -168 2 188 c1 107 -2 187 -7 187 -5 0 -36 -48 -70 -107 -94 -168 -77
-166 -160 -19 -40 69 -77 126 -82 126 -5 0 -9 -78 -9 -185z"/>
<path d="M3450 1150 l0 -60 -26 10 c-64 25 -135 1 -153 -51 -25 -71 -5 -175
37 -198 26 -14 117 -14 143 -1 18 10 19 23 19 185 0 110 -4 175 -10 175 -6 0
-10 -27 -10 -60z m-35 -64 l35 -15 0 -104 c0 -117 0 -117 -83 -117 -61 0 -87
33 -87 114 0 77 14 112 49 125 37 13 47 13 86 -3z"/>
<path d="M688 1098 c-45 -16 -32 -27 13 -11 70 23 129 -11 129 -76 0 -15 -10
-17 -71 -17 -65 1 -73 -1 -95 -27 -27 -31 -29 -45 -13 -80 14 -31 49 -47 102
-47 88 0 87 -1 87 117 0 97 -2 106 -25 128 -26 27 -76 32 -127 13z m140 -176
c3 -48 1 -53 -23 -62 -70 -27 -145 5 -145 60 0 43 32 61 105 58 l60 -3 3 -53z"/>
<path d="M1237 1094 c-36 -20 -47 -50 -47 -130 0 -59 3 -68 29 -95 25 -24 37
-29 81 -29 41 0 56 5 75 25 23 22 25 32 25 109 0 82 -1 85 -31 110 -35 30 -88
34 -132 10z m131 -30 c17 -20 22 -37 22 -84 0 -33 -5 -70 -11 -83 -22 -48 -97
-62 -143 -26 -24 19 -26 26 -26 94 0 90 5 104 44 121 40 18 85 9 114 -22z"/>
<path d="M3568 1098 c-47 -16 -31 -27 18 -12 76 23 124 -4 124 -69 0 -28 -1
-28 -44 -22 -53 8 -112 -9 -126 -35 -6 -10 -10 -32 -10 -49 0 -45 39 -71 109
-71 89 0 94 8 89 125 -4 92 -6 99 -32 121 -29 26 -79 31 -128 12z m142 -178
l0 -59 -35 -7 c-99 -18 -172 49 -115 106 16 16 33 20 85 20 l65 0 0 -60z"/>
</g>
</svg>
